<?xml version="1.0" encoding="UTF-8"?>
<svg width="256px" height="256px" viewBox="0 0 256 256" version="1.1" xmlns="http://www.w3.org/2000/svg" xmlns:xlink="http://www.w3.org/1999/xlink">
    <!-- Generator: Sketch 61.1 (89650) - https://sketch.com -->
    <title>Artboard</title>
    <desc>Created with Sketch.</desc>
    <g id="Artboard" stroke="none" stroke-width="1" fill="none" fill-rule="evenodd">
        <g id="icon">
            <rect id="Rectangle" fill="#514496" x="0" y="0" width="256" height="256"></rect>
            <g id="Rectangle-2" transform="translate(22.000000, 22.000000)">
                <g id="path-1-link" fill="#000000">
                    <path d="M6,0 L206,0 C209.313708,0 212,2.6862915 212,6 L212,207 C212,209.761424 209.761424,212 207,212 L5,212 C2.2385763,212 0,209.761424 0,207 L0,6 C0,2.6862915 2.6862915,0 6,0 Z" id="path-1"></path>
                </g>
                <g id="path-1-link" transform="translate(0.000000, 33.000000)" fill="#FFFFFF">
                    <path d="M6,0 L206,0 C209.313708,0 212,2.26814235 212,5.06603774 L212,174.778302 C212,177.109882 209.761424,179 207,179 L5,179 C2.2385763,179 0,177.109882 0,174.778302 L0,5.06603774 C0,2.26814235 2.6862915,0 6,0 Z" id="path-1"></path>
                </g>
            </g>
            <path d="M27,22 L229,22 C231.761424,22 234,24.2385763 234,27 L234,96 L22,96 L22,27 C22,24.2385763 24.2385763,22 27,22 Z" id="Rectangle" fill="#B269A4"></path>
        </g>
        <g id="logo-ebiz" transform="translate(62.000000, 129.000000)">
            <path d="M59.7043297,1.58861723 L59.7043297,16.6833667 C68.096967,12.8142685 80.4073681,17.7381162 80.2612527,28.4356713 L80.2612527,41.7426854 C79.529956,51.707976 72.3940549,55.048978 64.2950879,55.048978 C59.4704011,55.048978 53.9734396,53.9357916 49.2948681,52.1473347 L49.2948681,1.58861723 L59.7043297,1.58861723 Z M59.7043297,46.6080962 C63.2715604,48.3958317 69.7927692,47.3410822 69.9396044,42.738998 L69.9396044,27.9385972 C69.4127253,23.4836874 63.0369121,22.7225651 59.7043297,24.5983166 L59.7043297,46.6095391 L59.7043297,46.6080962 Z M90.9636648,0.0360721443 C94.6777308,0.0360721443 97.1919231,2.70252505 97.1919231,6.21883768 C97.1919231,9.7351503 94.6777308,12.4629259 90.9636648,12.4629259 C87.5425495,12.4629259 84.881522,9.70701403 84.881522,6.21955912 C84.881522,2.73210421 87.5425495,0.0367935872 90.9636648,0.0367935872 L90.9636648,0.0360721443 Z M85.9921429,15.5687375 L96.3152308,15.5687375 L96.3152308,54.1991182 L85.9935824,54.1991182 L85.9935824,15.5687375 L85.9921429,15.5687375 Z M102.251978,24.3631263 L102.251978,15.511022 L128.012912,15.511022 L130.995681,19.1456513 L114.971214,45.2012826 L130.499753,45.2012826 L130.499753,54.0533868 L103.860687,54.0533868 L100.877198,50.3307415 L116.841923,24.3624048 L102.251978,24.3624048 L102.251978,24.3631263 Z" id="Shape" fill="#514496" fill-rule="nonzero"></path>
            <path d="M1.7173956,37.5511022 C1.7173956,37.5511022 8.61864835,62.5815631 29.2345934,61.8781563 C54.9667363,60.9691383 73.6234396,20.4348697 42.5095,9.38597194 C24.2918626,2.90741483 12.3024835,7.33346693 6.57087363,13.4880962 C-4.42304945,25.1826854 1.7173956,37.5511022 1.7173956,37.5511022 Z" id="Path" fill="#6FBE44" opacity="0.9"></path>
            <path d="M28.2981593,15.0709419 C35.7838736,15.0709419 43.4459341,19.3793988 43.4459341,28.698998 L43.4459341,39.4268537 L23.1812418,39.4268537 L23.1812418,41.2737475 C23.1812418,46.6376754 32.3922692,47.223487 34.9949945,42.9150301 L41.7486923,47.6621242 L41.7494121,47.6628457 C38.7666429,53.1732265 32.8313352,54.9609619 28.2988791,54.9609619 C20.5785165,54.9609619 12.7710604,50.4180361 12.7710604,41.2737475 L12.7710604,28.698998 C12.7710604,19.408978 20.5785165,15.0709419 28.2981593,15.0709419 Z M23.1812893,28.0985355 L23.1812418,31.7485371 L33.7375385,31.7485371 L33.7375385,28.231503 L33.7382582,28.231503 C33.7382582,22.9410536 23.3263544,22.8685817 23.1812893,28.0985355 Z" id="Combined-Shape" fill="#FFFFFF" fill-rule="nonzero"></path>
            <path d="M50.0247253,69.8501002 L49.2646374,69.8501002 C49.1768242,69.8501002 49.148033,69.8212425 49.148033,69.7332265 L49.148033,61.9358717 C49.148033,61.8492986 49.1768242,61.8204409 49.2646374,61.8204409 L50.0247253,61.8204409 C50.1125385,61.8204409 50.1420495,61.8492986 50.1420495,61.9358717 L50.1420495,64.8382365 C50.4637912,64.3115832 50.9899505,64.0468136 51.7500385,64.0468136 C52.7735659,64.0468136 53.4170495,64.4868938 53.7092802,65.3959118 C53.8546758,65.7761122 53.9136978,66.3337876 53.9136978,66.9780361 C53.9136978,67.6511423 53.8561154,68.1792385 53.7085604,68.589018 C53.4156099,69.4980361 52.7728462,69.9381162 51.7485989,69.9381162 C50.988511,69.9381162 50.4623516,69.6733467 50.1406099,69.1459719 L50.1406099,69.7029259 C50.1406099,69.7909419 50.1118187,69.8493788 50.0232857,69.8493788 L50.0247253,69.8501002 Z M51.5168297,69.0586774 C52.1595934,69.0586774 52.5691484,68.7657715 52.7447747,68.2088176 C52.8311484,67.945491 52.8599396,67.53499 52.8599396,67.0364729 C52.8599396,66.5379559 52.8311484,66.1274549 52.7447747,65.8641283 C52.5389176,65.3086172 52.1300824,65.0142685 51.5161099,65.0142685 C50.8726264,65.0142685 50.4630714,65.3078958 50.2586538,65.8641283 C50.1708407,66.1281764 50.1413297,66.5090982 50.1413297,67.0364729 C50.1413297,67.5638477 50.1701209,67.9743487 50.2586538,68.2095391 C50.4630714,68.7650501 50.8726264,69.0593988 51.5161099,69.0593988 L51.5168297,69.0586774 Z M55.8146374,71.9610421 L55.5224066,71.9610421 C55.4345934,71.9610421 55.4058022,71.9321844 55.4058022,71.8434469 L55.4058022,71.1696192 C55.4058022,71.0808818 55.4345934,71.0513026 55.5224066,71.0513026 L55.727544,71.0513026 C55.9614725,71.0513026 56.1363791,70.9935872 56.2817747,70.8752705 C56.4271703,70.7569539 56.5459341,70.5239279 56.6920495,70.2014429 L56.8676758,69.6747896 L54.7911099,64.2805611 C54.7623187,64.193988 54.7911099,64.1651303 54.8789231,64.1651303 L55.698033,64.1651303 C55.7556154,64.1651303 55.8146374,64.193988 55.8441484,64.282004 L57.335533,68.3848497 L57.3643242,68.3848497 L58.7966868,64.2798397 C58.8269176,64.1932665 58.8557088,64.1644088 58.943522,64.1644088 L59.7338407,64.1644088 C59.8216538,64.1644088 59.8504451,64.1932665 59.8216538,64.2812826 L57.5989725,70.2598798 C57.365044,70.9041283 57.1023242,71.3730661 56.8388846,71.6075351 C56.5754451,71.842004 56.2544231,71.9588778 55.8153571,71.9588778 L55.8146374,71.9610421 Z M65.9908901,69.9676954 C65.3186154,69.9676954 64.7334341,69.8212425 64.2655769,69.4987575 C63.7977198,69.1762725 63.4471868,68.7073347 63.2420495,68.0919439 C63.0959341,67.6518637 63.0376319,66.9195992 63.0376319,65.8338277 C63.0376319,64.7480561 63.0952143,63.9883768 63.2413297,63.5778758 C63.446467,62.962485 63.7682088,62.4935471 64.2648571,62.1710621 C64.7327143,61.8485772 65.3178956,61.7021242 65.9901703,61.7021242 C67.3937418,61.7021242 68.3006648,62.317515 68.7397308,63.5778758 C68.8851264,64.0179559 68.9441484,64.7502204 68.9441484,65.8345491 C68.9441484,66.9188778 68.8865659,67.6814429 68.739011,68.0926653 C68.3308956,69.3523046 67.4239725,69.9684168 65.9908901,69.9684168 L65.9908901,69.9676954 Z M65.9908901,69.0009619 C66.869022,69.0009619 67.4534835,68.5897395 67.7162033,67.7990381 C67.8328077,67.4181162 67.8911099,66.7731463 67.8911099,65.8352705 C67.8911099,64.8973948 67.8335275,64.2228457 67.7154835,63.871503 C67.452044,63.0800802 66.8963736,62.6695792 65.9894505,62.6695792 C65.1113187,62.6695792 64.5570879,63.0808016 64.2936484,63.871503 C64.177044,64.2524248 64.118022,64.8973948 64.118022,65.8352705 C64.118022,66.7731463 64.1756044,67.4469739 64.2936484,67.7990381 C64.5570879,68.5904609 65.1415495,69.0002405 65.9894505,69.0002405 L65.9908901,69.0009619 Z M72.6582143,69.8501002 L71.8391044,69.8501002 C71.7512912,69.8501002 71.7225,69.8212425 71.7225,69.7332265 L71.7225,62.8448898 C71.7225,62.7871743 71.6937088,62.7871743 71.6649176,62.7871743 L69.4407967,62.7871743 C69.3544231,62.7871743 69.3256319,62.7583166 69.3256319,62.6695792 L69.3256319,61.9358717 C69.3256319,61.8492986 69.3544231,61.8204409 69.4407967,61.8204409 L75.0262912,61.8204409 C75.1148242,61.8204409 75.1436154,61.8492986 75.1436154,61.9358717 L75.1436154,62.6695792 C75.1436154,62.7575952 75.1148242,62.7871743 75.027011,62.7871743 L72.8338407,62.7871743 C72.7748187,62.7871743 72.7748187,62.8160321 72.7748187,62.8448898 L72.7748187,69.7332265 C72.7748187,69.7909419 72.7157967,69.8501002 72.6574945,69.8501002 L72.6582143,69.8501002 Z M77.3367857,69.8501002 L76.5183956,69.8501002 C76.4305824,69.8501002 76.4010714,69.8212425 76.4010714,69.7332265 L76.4010714,61.9358717 C76.4010714,61.8492986 76.4298626,61.8204409 76.5183956,61.8204409 L79.3831209,61.8204409 C80.1439286,61.8204409 80.7579011,62.0246092 81.2257582,62.4646894 C81.6936154,62.9047695 81.9282637,63.4905812 81.9282637,64.2228457 C81.9282637,64.9551102 81.6936154,65.5416433 81.226478,65.9817234 C80.7593407,66.4218036 80.1439286,66.6259719 79.3838407,66.6259719 L77.5412033,66.6259719 C77.4836209,66.6259719 77.4836209,66.6562725 77.4836209,66.6858517 L77.4836209,69.7339479 C77.4533901,69.7916633 77.4245989,69.8508216 77.3367857,69.8508216 L77.3367857,69.8501002 Z M79.3255385,65.6296593 C79.8221868,65.6296593 80.2036703,65.5127856 80.4951813,65.2487375 C80.7586209,64.9846894 80.905456,64.6629259 80.905456,64.1932665 C80.905456,63.7531864 80.7579011,63.4018437 80.4951813,63.1377956 C80.2324615,62.8737475 79.8229066,62.7568737 79.3255385,62.7568737 L77.5419231,62.7568737 C77.4829011,62.7568737 77.4829011,62.7857315 77.4829011,62.8145892 L77.4829011,65.5106212 C77.4829011,65.5683367 77.5116923,65.5683367 77.5419231,65.5683367 L79.3255385,65.5683367 L79.3255385,65.6296593 Z M85.8755385,69.7332265 L85.8755385,61.9373146 C85.8755385,61.8492986 85.9043297,61.8197194 85.9928626,61.8197194 L88.8287967,61.8197194 C89.6191154,61.8197194 90.2338077,61.9950301 90.6426429,62.3752305 C91.051478,62.7554309 91.2573352,63.2553908 91.2573352,63.9292184 C91.2573352,64.8093788 90.9060824,65.3937475 90.1755055,65.6880962 L90.1755055,65.7169539 C90.4972473,65.8049699 90.7606868,66.0098597 91.0248462,66.3323447 C91.2580549,66.6548297 91.4041703,67.0653307 91.4041703,67.5638477 C91.4041703,68.3256914 91.1702418,68.8826453 90.7311758,69.2635671 C90.2921099,69.644489 89.6205549,69.8493788 88.8021648,69.8493788 L86.0238132,69.8493788 C85.906489,69.8493788 85.876978,69.7916633 85.876978,69.732505 L85.8755385,69.7332265 Z M86.9868791,65.2783166 L88.8007253,65.2783166 C89.2383516,65.2783166 89.5896044,65.1607214 89.8228132,64.9262525 C90.0862527,64.6917836 90.2042967,64.3995992 90.2042967,64.0172345 C90.2042967,63.6348697 90.0862527,63.3145491 89.8228132,63.1082164 C89.5896044,62.8744689 89.2383516,62.7575952 88.8007253,62.7575952 L86.9868791,62.7575952 C86.9292967,62.7575952 86.9292967,62.7864529 86.9292967,62.8153106 L86.9292967,65.1888577 C86.9292967,65.248016 86.9292967,65.2775952 86.9868791,65.2775952 L86.9868791,65.2783166 Z M86.9292967,68.8249299 C86.9292967,68.8826453 86.9580879,68.8826453 86.9868791,68.8826453 L88.8583077,68.8826453 C89.3261648,68.8826453 89.7062088,68.7650501 89.9401374,68.5305812 C90.2035769,68.2961122 90.3201813,67.9736273 90.3201813,67.5638477 C90.3201813,67.1540681 90.2035769,66.8308617 89.9401374,66.5971142 C89.6766978,66.3619238 89.3261648,66.2436072 88.8583077,66.2436072 L86.9868791,66.2436072 C86.9292967,66.2436072 86.9292967,66.2739078 86.9292967,66.303487 L86.9292967,68.823487 L86.9292967,68.8249299 Z M97.2797363,69.8501002 L96.5196484,69.8501002 C96.4318352,69.8501002 96.403044,69.8212425 96.403044,69.7332265 L96.403044,69.1762725 C96.0813022,69.7029259 95.5551429,69.9676954 94.8526374,69.9676954 C94.2386648,69.9676954 93.7708077,69.7620842 93.4202747,69.3818838 C93.0697418,69.0016834 92.8933956,68.4728657 92.8933956,67.8286172 L92.8933956,64.2827255 C92.8933956,64.1947094 92.9221868,64.1651303 93.0107198,64.1651303 L93.7715275,64.1651303 C93.8593407,64.1651303 93.8888516,64.193988 93.8888516,64.282004 L93.8888516,67.5934269 C93.8888516,68.5601603 94.2976868,69.0593988 95.1463077,69.0593988 C95.5263516,69.0593988 95.8480934,68.9418036 96.082022,68.6770341 C96.3159505,68.4122645 96.4325549,68.0926653 96.4325549,67.6525852 L96.4325549,64.2805611 C96.4325549,64.193988 96.4613462,64.1651303 96.5498791,64.1651303 L97.309967,64.1651303 C97.3977802,64.1651303 97.4272912,64.193988 97.4272912,64.2805611 L97.4272912,69.7036473 C97.3985,69.7916633 97.3697088,69.8501002 97.2811758,69.8501002 L97.2797363,69.8501002 Z M101.286033,69.9676954 C100.37911,69.9676954 99.5902308,69.6747896 98.9467473,69.1178357 C98.8891648,69.0601202 98.8891648,69.0002405 98.9467473,68.9418036 L99.4433956,68.4151503 C99.5024176,68.3574349 99.5607198,68.3574349 99.619022,68.4151503 C100.11567,68.8552305 100.700852,69.0601202 101.373846,69.0601202 C101.782681,69.0601202 102.075632,68.9721042 102.280769,68.8256513 C102.485907,68.6791984 102.601791,68.4432866 102.601791,68.2088176 C102.601791,67.9743487 102.513978,67.7990381 102.367863,67.6821643 C102.221747,67.5652906 101.930236,67.4765531 101.49117,67.4173948 L100.877198,67.3596794 C99.7651374,67.2420842 99.1806758,66.7147094 99.1806758,65.7768337 C99.1806758,65.2198798 99.3555824,64.8101002 99.7349066,64.5164729 C100.114231,64.2228457 100.613038,64.0475351 101.285313,64.0475351 C102.074912,64.0475351 102.747907,64.2524248 103.303577,64.6629259 C103.362599,64.6917836 103.362599,64.7509419 103.332368,64.8382365 L102.923533,65.3360321 C102.865951,65.3951904 102.806929,65.3951904 102.748626,65.3663327 C102.280769,65.0734269 101.75317,64.8973948 101.227011,64.8973948 C100.876478,64.8973948 100.613038,64.9551102 100.437412,65.1022846 C100.261786,65.2494589 100.173973,65.4240481 100.173973,65.6577956 C100.173973,65.892986 100.261786,66.069018 100.407901,66.1858918 C100.582088,66.303487 100.845527,66.391503 101.255082,66.4203607 L101.839544,66.4780762 C102.393775,66.5379559 102.832841,66.6844088 103.125791,66.9773146 C103.418022,67.2406413 103.564857,67.6215631 103.564857,68.090501 C103.564857,68.6474549 103.35972,69.1163928 102.979676,69.4395992 C102.569401,69.7902204 102.01517,69.9662525 101.283154,69.9662525 L101.286033,69.9676954 Z M106.023626,62.9040481 L105.234027,62.9040481 C105.146214,62.9040481 105.116703,62.8751904 105.116703,62.7871743 L105.116703,61.9373146 C105.116703,61.8492986 105.145495,61.8197194 105.234027,61.8197194 L106.023626,61.8197194 C106.11,61.8197194 106.140231,61.8485772 106.140231,61.9365932 L106.140231,62.7864529 C106.140231,62.8441683 106.082648,62.9033267 106.022907,62.9033267 L106.023626,62.9040481 Z M105.994835,69.8501002 L105.234027,69.8501002 C105.146214,69.8501002 105.116703,69.8212425 105.116703,69.7332265 L105.116703,64.3108617 C105.116703,64.2228457 105.145495,64.193988 105.234027,64.193988 L105.994115,64.193988 C106.080489,64.193988 106.10928,64.2228457 106.10928,64.3108617 L106.10928,69.7332265 C106.10928,69.7909419 106.080489,69.8501002 105.994115,69.8501002 L105.994835,69.8501002 Z M112.485813,69.8501002 L111.725725,69.8501002 C111.637192,69.8501002 111.608401,69.8212425 111.608401,69.7332265 L111.608401,66.4218036 C111.608401,65.4550701 111.198126,64.9846894 110.350225,64.9846894 C109.970181,64.9846894 109.64844,65.1022846 109.414511,65.3670541 C109.180582,65.6318236 109.063258,65.9514228 109.063258,66.3626453 L109.063258,69.7332265 C109.063258,69.8212425 109.034467,69.8508216 108.946654,69.8508216 L108.186566,69.8508216 C108.098753,69.8508216 108.069242,69.8219639 108.069242,69.7339479 L108.069242,64.3115832 C108.069242,64.2235671 108.098033,64.1947094 108.186566,64.1947094 L108.946654,64.1947094 C109.034467,64.1947094 109.063258,64.2235671 109.063258,64.3115832 L109.063258,64.8396794 C109.385,64.3418838 109.911159,64.0771142 110.642456,64.0771142 C111.256429,64.0771142 111.724286,64.2827255 112.074819,64.6636473 C112.425352,65.0445691 112.601698,65.5726653 112.601698,66.2169138 L112.601698,69.7635271 C112.601698,69.7923848 112.544115,69.8501002 112.485093,69.8501002 L112.485813,69.8501002 Z M116.579203,69.9676954 C115.994742,69.9676954 115.526885,69.8212425 115.146841,69.5564729 C114.766797,69.2917034 114.473846,68.9122244 114.327731,68.4144289 C114.211126,68.0320641 114.152824,67.5342685 114.152824,66.9787575 C114.152824,66.3626453 114.210407,65.8937074 114.327731,65.5416433 C114.473846,65.0438477 114.766797,64.661483 115.146841,64.3988778 C115.526885,64.1362725 115.994742,63.9876553 116.550412,63.9876553 C117.106082,63.9876553 117.57394,64.1348297 117.953984,64.3988778 C118.334027,64.6629259 118.626258,65.0438477 118.773093,65.5120641 C118.889698,65.8944289 118.948,66.4210822 118.948,67.124489 C118.948,67.212505 118.919209,67.2413627 118.831396,67.2413627 L115.263445,67.2413627 C115.205863,67.2413627 115.205863,67.2702204 115.205863,67.2990782 C115.205863,67.5638477 115.234654,67.7694589 115.292236,67.9743487 C115.526885,68.6193186 115.994742,68.9699399 116.726038,68.9699399 C117.339291,68.9699399 117.807148,68.7657715 118.187192,68.3552705 C118.244775,68.2975551 118.304516,68.2975551 118.362819,68.3264128 L118.859467,68.766493 C118.918489,68.8242084 118.918489,68.8819238 118.859467,68.9410822 C118.275005,69.644489 117.543709,69.9669739 116.579203,69.9669739 L116.579203,69.9676954 Z M115.204423,66.5090982 L117.836659,66.5090982 C117.895681,66.5090982 117.895681,66.4787976 117.895681,66.4499399 C117.895681,66.1858918 117.86689,65.981002 117.807868,65.8049699 C117.602731,65.2191583 117.164385,64.9248096 116.520901,64.9248096 C115.848626,64.9248096 115.40956,65.2184369 115.233934,65.8049699 C115.176352,65.981002 115.146121,66.1858918 115.146121,66.4499399 C115.146121,66.4787976 115.174912,66.5076553 115.203703,66.5076553 L115.204423,66.5090982 Z M122.456209,69.9676954 C121.550725,69.9676954 120.761126,69.6747896 120.116923,69.1178357 C120.059341,69.0601202 120.059341,69.0002405 120.116923,68.9418036 L120.615011,68.4151503 C120.672593,68.3574349 120.731615,68.3574349 120.790637,68.4151503 C121.287286,68.8552305 121.872467,69.0601202 122.544742,69.0601202 C122.955016,69.0601202 123.246527,68.9721042 123.451665,68.8256513 C123.656802,68.6791984 123.772687,68.4432866 123.772687,68.2088176 C123.772687,67.9743487 123.684154,67.7990381 123.538038,67.6821643 C123.391923,67.5652906 123.098973,67.4765531 122.659907,67.4173948 L122.046654,67.3596794 C120.935313,67.2420842 120.350852,66.7147094 120.350852,65.7768337 C120.350852,65.2198798 120.526478,64.8101002 120.906522,64.5164729 C121.286566,64.2228457 121.784654,64.0475351 122.456209,64.0475351 C123.246527,64.0475351 123.918802,64.2524248 124.474473,64.6629259 C124.532055,64.6917836 124.532055,64.7509419 124.503264,64.8382365 L124.094429,65.3360321 C124.036846,65.3951904 123.977104,65.3951904 123.918802,65.3663327 C123.450945,65.0734269 122.925505,64.8973948 122.397907,64.8973948 C122.046654,64.8973948 121.783214,64.9551102 121.608308,65.1022846 C121.433401,65.2494589 121.344868,65.4240481 121.344868,65.6577956 C121.344868,65.892986 121.432681,66.069018 121.578797,66.1858918 C121.754423,66.303487 122.017863,66.391503 122.426698,66.4203607 L123.011159,66.4780762 C123.56683,66.5379559 124.005896,66.6844088 124.298126,66.9773146 C124.590357,67.2406413 124.737192,67.6215631 124.737192,68.090501 C124.737192,68.6474549 124.532055,69.1163928 124.152011,69.4395992 C123.741736,69.7902204 123.187505,69.9662525 122.456209,69.9662525 L122.456209,69.9676954 Z M128.246841,69.9676954 C127.339918,69.9676954 126.551038,69.6747896 125.907555,69.1178357 C125.849973,69.0601202 125.849973,69.0002405 125.907555,68.9418036 L126.404203,68.4151503 C126.463225,68.3574349 126.521527,68.3574349 126.580549,68.4151503 C127.077198,68.8552305 127.662379,69.0601202 128.334654,69.0601202 C128.744929,69.0601202 129.03644,68.9721042 129.241577,68.8256513 C129.446714,68.6791984 129.562599,68.4432866 129.562599,68.2088176 C129.562599,67.9743487 129.474786,67.7990381 129.32867,67.6821643 C129.182555,67.5652906 128.889604,67.4765531 128.450538,67.4173948 L127.837286,67.3596794 C126.725945,67.2420842 126.141484,66.7147094 126.141484,65.7768337 C126.141484,65.2198798 126.31639,64.8101002 126.697154,64.5164729 C127.077918,64.2228457 127.573846,64.0475351 128.246841,64.0475351 C129.03644,64.0475351 129.707995,64.2524248 130.264385,64.6629259 C130.321967,64.6917836 130.321967,64.7509419 130.293176,64.8382365 L129.884341,65.3360321 C129.826758,65.3951904 129.767016,65.3951904 129.708714,65.3663327 C129.240857,65.0734269 128.715418,64.8973948 128.187819,64.8973948 C127.837286,64.8973948 127.573846,64.9551102 127.39822,65.1022846 C127.222593,65.2494589 127.1355,65.4240481 127.1355,65.6577956 C127.1355,65.892986 127.224033,66.069018 127.370148,66.1858918 C127.545775,66.303487 127.809214,66.391503 128.218049,66.4203607 L128.802511,66.4780762 C129.358181,66.5379559 129.797247,66.6844088 130.089478,66.9773146 C130.381709,67.2406413 130.528544,67.6215631 130.528544,68.090501 C130.528544,68.6474549 130.323407,69.1163928 129.943363,69.4395992 C129.534527,69.7902204 128.950066,69.9662525 128.24828,69.9662525 L128.246841,69.9676954 Z" id="Shape" fill="#9C9C9C" fill-rule="nonzero"></path>
        </g>
        <g id="woocommerce_logo" transform="translate(43.000000, 44.000000)" fill="#FFFFFF">
            <path d="M52.3149171,0.0465753425 C55.2734807,0.0465753425 57.6685083,2.42191781 57.6685083,5.35616438 L57.6685083,23.0547945 C57.6685083,25.9890411 55.2734807,28.3643836 52.3149171,28.3643836 L35.5497238,28.3643836 L37.8508287,33.9534247 L27.730663,28.3643836 L5.58839779,28.3643836 C2.62983425,28.3643836 0.234635441,25.9890411 0.234635441,23.0547945 L0.234635441,5.35616438 C0.211325967,2.44520548 2.60635359,0.0465753425 5.56491713,0.0465753425 L52.3149171,0.0465753425 Z M24.8799366,3.15932879 L24.7016575,3.16712329 C24.0207182,3.21369863 23.5041436,3.53972603 23.1519337,4.19178082 C21.6961326,6.82328767 20.6629834,11.0849315 20.0524862,17 C19.160221,14.7643836 18.4088398,12.1328767 17.8218232,9.03561644 C17.5635359,7.66164384 16.929558,7.00958904 15.8964088,7.07945205 C15.191989,7.1260274 14.6049724,7.59178082 14.1353591,8.47671233 L14.1353591,8.47671233 L8.99309392,18.1876712 C8.14779006,14.8109589 7.34944751,10.6890411 6.62154696,5.82191781 C6.45718232,4.6109589 5.77624309,4.05205479 4.57872928,4.14520548 C3.92127072,4.19178082 3.4281768,4.42465753 3.09944751,4.86712329 C2.77071823,5.28630137 2.65331492,5.82191781 2.72375691,6.42739726 C4.10911602,15.160274 5.40055249,21.0520548 6.5980663,24.1027397 C7.06767956,25.2205479 7.60773481,25.7561644 8.24171271,25.709589 C9.22790055,25.639726 10.4019337,24.2890411 11.7872928,21.6575342 C12.5151934,20.1671233 13.6422652,17.9315068 15.1685083,14.9506849 C16.4364641,19.3520548 18.1740331,22.6589041 20.3577348,24.8712329 C20.968232,25.5 21.6022099,25.7794521 22.2127072,25.7328767 C22.7527624,25.6863014 23.1754144,25.4068493 23.4571823,24.8945205 C23.691989,24.4520548 23.7859116,23.939726 23.7389503,23.3575342 C23.5980663,21.2383562 23.8093923,18.2808219 24.3964088,14.4849315 C25.0069061,10.5726027 25.7582873,7.75479452 26.6740331,6.07808219 C26.8618785,5.72876712 26.9323204,5.37945205 26.9088398,4.96027397 C26.8618785,4.42465753 26.6270718,3.98219178 26.1809392,3.63287671 C25.7348066,3.28356164 25.2417127,3.12054795 24.7016575,3.16712329 Z M48.558011,5.68219178 C46.3038674,5.68219178 44.4723757,6.84657534 43.0400552,9.17534247 C41.8190608,11.1547945 41.2085635,13.3438356 41.2085635,15.7424658 C41.2085635,17.5356164 41.5842541,19.0726027 42.3356354,20.3534247 C43.1809392,21.8205479 44.4254144,22.7054795 46.0925414,23.0547945 C46.538674,23.1479452 46.961326,23.1945205 47.3604972,23.1945205 C49.6381215,23.1945205 51.4696133,22.030137 52.878453,19.7013699 C54.0994475,17.6986301 54.7099448,15.509589 54.7099448,13.1109589 C54.7099448,11.2945205 54.3342541,9.78082192 53.5828729,8.52328767 C52.7375691,7.05616438 51.4930939,6.17123288 49.8259669,5.82191781 C49.3798343,5.72876712 48.9571823,5.68219178 48.558011,5.68219178 Z M33.8356354,5.68219178 C31.5814917,5.68219178 29.75,6.84657534 28.3176796,9.17534247 C27.0966851,11.1547945 26.4861878,13.3438356 26.4861878,15.7424658 C26.4861878,17.5356164 26.8618785,19.0726027 27.6132597,20.3534247 C28.4585635,21.8205479 29.7030387,22.7054795 31.3701657,23.0547945 C31.8162983,23.1479452 32.2389503,23.1945205 32.6381215,23.1945205 C34.9157459,23.1945205 36.7472376,22.030137 38.1560773,19.7013699 C39.3770718,17.6986301 39.9875691,15.509589 39.9875691,13.1109589 C39.9875691,11.2945205 39.6118785,9.78082192 38.8604972,8.52328767 C38.0151934,7.05616438 36.7472376,6.17123288 35.1035912,5.82191781 C34.6574586,5.72876712 34.2348066,5.68219178 33.8356354,5.68219178 Z M48.980663,9.61780822 C49.5441989,9.73424658 50.0138122,10.2232877 50.3660221,11.1315068 C50.6477901,11.8534247 50.788674,12.5753425 50.788674,13.2506849 C50.788674,13.8561644 50.718232,14.4383562 50.6243094,14.9739726 C50.2955801,16.5109589 49.7085635,17.6520548 48.839779,18.4205479 C48.1588398,19.0260274 47.5248619,19.2821918 46.9378453,19.1657534 C46.3743094,19.0493151 45.9046961,18.560274 45.5524862,17.6520548 C45.2707182,16.930137 45.1298343,16.2082192 45.1298343,15.5328767 C45.1298343,14.9506849 45.1767956,14.3684932 45.2941989,13.8328767 C45.5055249,12.8780822 45.9046961,11.9465753 46.538674,11.0616438 C47.3135359,9.92054795 48.1353591,9.45479452 48.980663,9.61780822 Z M34.2582873,9.61780822 C34.8218232,9.73424658 35.2914365,10.2232877 35.6436464,11.1315068 C35.9254144,11.8534247 36.0662983,12.5753425 36.0662983,13.2506849 C36.0662983,13.8561644 36.019337,14.4383562 35.9019337,14.9739726 C35.5732044,16.5109589 34.9861878,17.6520548 34.1174033,18.4205479 C33.4364641,19.0260274 32.8024862,19.2821918 32.2154696,19.1657534 C31.6519337,19.0493151 31.1823204,18.560274 30.8301105,17.6520548 C30.5483425,16.930137 30.4074586,16.2082192 30.4074586,15.5328767 C30.4074586,14.9506849 30.4544199,14.3684932 30.5718232,13.8328767 C30.7831492,12.8780822 31.1823204,11.9465753 31.8162983,11.0616438 C32.5911602,9.92054795 33.4129834,9.45479452 34.2582873,9.61780822 Z" id="Combined-Shape"></path>
            <path d="M63.609116,8.31369863 C62.0359116,9.85068493 61.2610497,11.8068493 61.2610497,14.1821918 C61.2610497,16.7205479 62.0359116,18.7931507 63.5856354,20.3534247 C65.1353591,21.9136986 67.1546961,22.7054795 69.6671271,22.7054795 C70.3950276,22.7054795 71.2168508,22.5890411 72.109116,22.3328767 L72.109116,18.560274 C71.2872928,18.7931507 70.5828729,18.909589 69.9723757,18.909589 C68.7279006,18.909589 67.7417127,18.490411 66.9903315,17.6753425 C66.2389503,16.8369863 65.8632597,15.7191781 65.8632597,14.2986301 C65.8632597,12.9712329 66.2389503,11.8767123 66.9668508,11.0383562 C67.718232,10.1767123 68.6339779,9.75753425 69.7610497,9.75753425 C70.4889503,9.75753425 71.2638122,9.8739726 72.109116,10.1068493 L72.109116,6.33424658 C71.3342541,6.12465753 70.4654696,6.03150685 69.5497238,6.03150685 C67.1546961,6.00821918 65.1823204,6.77671233 63.609116,8.31369863 Z M79.9046961,6.00821918 C77.7444751,6.00821918 76.0538674,6.73013699 74.8328729,8.15068493 C73.6118785,9.57123288 73.0248619,11.5739726 73.0248619,14.1356164 C73.0248619,16.9068493 73.6353591,19.0260274 74.8328729,20.4931507 C76.0303867,21.960274 77.7914365,22.7054795 80.0925414,22.7054795 C82.3232044,22.7054795 84.0372928,21.960274 85.2348066,20.4931507 C86.4323204,19.0260274 87.0428177,16.9534247 87.0428177,14.2986301 C87.0428177,11.6438356 86.4323204,9.59452055 85.211326,8.15068493 C83.9668508,6.73013699 82.2058011,6.00821918 79.9046961,6.00821918 Z M81.7596685,18.1178082 C81.3370166,18.769863 80.7030387,19.0958904 79.9046961,19.0958904 C79.1533149,19.0958904 78.589779,18.769863 78.1906077,18.1178082 C77.7914365,17.4657534 77.6035912,16.1616438 77.6035912,14.1821918 C77.6035912,11.1315068 78.378453,9.61780822 79.9516575,9.61780822 C81.5953039,9.61780822 82.4406077,11.1547945 82.4406077,14.2520548 C82.4171271,16.1616438 82.1823204,17.4657534 81.7596685,18.1178082 Z M98.6422652,6.45068493 L97.7969613,10.0136986 C97.5856354,10.9219178 97.3743094,11.8534247 97.1864641,12.8082192 L96.7168508,15.2767123 C96.2707182,12.8082192 95.660221,9.8739726 94.8853591,6.45068493 L89.4378453,6.45068493 L87.3950276,22.309589 L91.480663,22.309589 L92.5842541,11.3876712 L95.378453,22.309589 L98.2900552,22.309589 L100.966851,11.4109589 L102.117403,22.309589 L106.390884,22.309589 L104.230663,6.45068493 L98.6422652,6.45068493 L98.6422652,6.45068493 Z M118.201657,6.45068493 L117.356354,10.0136986 C117.145028,10.9219178 116.933702,11.8534247 116.745856,12.8082192 L116.276243,15.2767123 C115.83011,12.8082192 115.219613,9.8739726 114.444751,6.45068493 L108.997238,6.45068493 L106.95442,22.309589 L111.040055,22.309589 L112.143646,11.3876712 L114.937845,22.309589 L117.849448,22.309589 L120.502762,11.4109589 L121.653315,22.309589 L125.926796,22.309589 L123.766575,6.45068493 L118.201657,6.45068493 L118.201657,6.45068493 Z M131.491713,16.0452055 L135.319061,16.0452055 L135.319061,12.7616438 L131.491713,12.7616438 L131.491713,9.85068493 L135.906077,9.85068493 L135.906077,6.4739726 L127.171271,6.4739726 L127.171271,22.3328767 L135.929558,22.3328767 L135.929558,18.9561644 L131.491713,18.9561644 L131.491713,16.0452055 Z M148.092541,13.530137 C148.538674,12.8082192 148.773481,12.0630137 148.773481,11.2945205 C148.773481,9.80410959 148.186464,8.61643836 147.012431,7.75479452 C145.838398,6.89315068 144.218232,6.45068493 142.198895,6.45068493 L137.174033,6.45068493 L137.174033,22.309589 L141.494475,22.309589 L141.494475,15.090411 L141.564917,15.090411 L145.063536,22.309589 L149.618785,22.309589 L146.167127,15.160274 C146.98895,14.7876712 147.646409,14.2520548 148.092541,13.530137 Z M141.470994,13.2739726 L141.470994,9.50136986 C142.504144,9.52465753 143.232044,9.68767123 143.678177,10.0136986 C144.124309,10.339726 144.335635,10.8520548 144.335635,11.5972603 C144.335635,12.6917808 143.372928,13.2506849 141.470994,13.2739726 Z M151.309392,8.31369863 C149.736188,9.85068493 148.961326,11.8068493 148.961326,14.1821918 C148.961326,16.7205479 149.736188,18.7931507 151.285912,20.3534247 C152.835635,21.9136986 154.854972,22.7054795 157.367403,22.7054795 C158.095304,22.7054795 158.917127,22.5890411 159.809392,22.3328767 L159.809392,18.560274 C158.987569,18.7931507 158.283149,18.909589 157.672652,18.909589 C156.428177,18.909589 155.441989,18.490411 154.690608,17.6753425 C153.939227,16.8369863 153.563536,15.7191781 153.563536,14.2986301 C153.563536,12.9712329 153.939227,11.8767123 154.667127,11.0383562 C155.418508,10.1767123 156.334254,9.75753425 157.461326,9.75753425 C158.189227,9.75753425 158.964088,9.8739726 159.809392,10.1068493 L159.809392,6.33424658 C159.03453,6.12465753 158.165746,6.03150685 157.25,6.03150685 C154.878453,6.00821918 152.882597,6.77671233 151.309392,8.31369863 Z M165.327348,18.909589 L165.327348,16.0219178 L169.154696,16.0219178 L169.154696,12.7383562 L165.327348,12.7383562 L165.327348,9.82739726 L169.765193,9.82739726 L169.765193,6.45068493 L161.030387,6.45068493 L161.030387,22.309589 L169.788674,22.309589 L169.788674,18.9328767 L165.327348,18.9328767 L165.327348,18.909589 Z" id="Shape" fill-rule="nonzero"></path>
        </g>
    </g>
</svg>